<?xml version="1.0" encoding="utf-8"?>
<svg version="1.1" id="WeWork" xmlns="http://www.w3.org/2000/svg" xmlns:xlink="http://www.w3.org/1999/xlink" x="0px" y="0px"
     viewBox="0 0 392.7 392.7" style="enable-background:new 0 0 392.7 392.7;" xml:space="preserve">
<path class="st0" d="M111.2,147.2l0.8,3l-3.6,2.4c-2.8,2-4.4,4.4-4.4,7.2c0,2.4,0.8,5,2.2,9.4l15.4,48.4l14-38.2L131,167
	c-2.8-7.8-5.8-12.8-10.4-16.8l0.8-3c18.6,1.2,35.4,1.2,54,0l0.8,3l-4.2,2.6c-2.8,1.8-4,3.6-4,6.6c0,2.4,0.8,5.2,2.2,9.4l16,48.8
	l12.8-33.8c1.6-4.4,2.2-7.6,2.2-11.4c0-7.4-4.4-14.4-13.8-22.2l0.8-3c13.4,1,26.8,1,40.2,0l0.8,3c-8.8,8-14.2,16.2-20.2,31.8
	l-26.8,70c-6.6-0.4-13.4-0.4-20,0L140,191.8L118,252c-6.8-0.4-14-0.4-20.8,0L65,167.8c-4.2-10.8-6.4-13.6-13.2-17.6l0.8-3
	C72.4,148.4,91.4,148.4,111.2,147.2z M279,255.2c-34.4,0-56.2-22-56.2-55.4s23.2-55.4,56.8-55.4c31.2,0,52.8,18.2,56,48.4h-72.2
	c1.2,25,13,35.6,34,35.6c12.4,0,24.2-4,33.4-11l3,2.2C325.2,241.6,304.6,255.2,279,255.2L279,255.2z M263.2,185h34.2
	c-1.6-25.2-8.4-33.2-17.6-33.2C269.6,151.8,263.6,161.6,263.2,185z M196.3,0C87.9,0,0,87.9,0,196.3s87.9,196.3,196.3,196.3
	s196.3-87.9,196.3-196.3S304.8,0,196.3,0z M196.3,380.7C94.5,380.7,12,298.1,12,196.3S94.5,12,196.3,12s184.3,82.5,184.3,184.3
	S298.1,380.7,196.3,380.7z"/>
</svg>

